<?xml version="1.0" encoding="us-ascii" standalone="no"?><svg xmlns="http://www.w3.org/2000/svg" xmlns:xlink="http://www.w3.org/1999/xlink" contentStyleType="text/css" height="559px" preserveAspectRatio="none" style="width:657px;height:559px;background:#FFFFFF;" version="1.1" viewBox="0 0 657 559" width="657px" zoomAndPan="magnify"><defs/><g><text fill="#000000" font-family="sans-serif" font-size="14" font-weight="bold" lengthAdjust="spacing" textLength="320" x="170" y="28.5352">Social Care Supplemental Benefits Workflow</text><rect fill="#FFFFFF" height="64.5098" style="stroke:#181818;stroke-width:1.0;" width="10" x="492.5" y="273.418"/><rect fill="none" height="117.0195" style="stroke:#000000;stroke-width:1.5;" width="499" x="96" y="228.9082"/><rect fill="none" height="105.2422" style="stroke:#000000;stroke-width:1.5;" width="626" x="25" y="402.2383"/><line style="stroke:#181818;stroke-width:0.5;stroke-dasharray:5.0,5.0;" x1="65" x2="65" y1="73.9766" y2="524.4805"/><line style="stroke:#181818;stroke-width:0.5;stroke-dasharray:5.0,5.0;" x1="159" x2="159" y1="73.9766" y2="524.4805"/><line style="stroke:#181818;stroke-width:0.5;stroke-dasharray:5.0,5.0;" x1="497" x2="497" y1="73.9766" y2="524.4805"/><line style="stroke:#181818;stroke-width:0.5;stroke-dasharray:5.0,5.0;" x1="587" x2="587" y1="73.9766" y2="524.4805"/><rect fill="#E2E2F0" height="30.4883" rx="2.5" ry="2.5" style="stroke:#181818;stroke-width:0.5;" width="61" x="35" y="42.4883"/><text fill="#000000" font-family="sans-serif" font-size="14" lengthAdjust="spacing" textLength="47" x="42" y="63.0234">Patient</text><rect fill="#E2E2F0" height="30.4883" rx="2.5" ry="2.5" style="stroke:#181818;stroke-width:0.5;" width="61" x="35" y="523.4805"/><text fill="#000000" font-family="sans-serif" font-size="14" lengthAdjust="spacing" textLength="47" x="42" y="544.0156">Patient</text><rect fill="#E2E2F0" height="30.4883" rx="2.5" ry="2.5" style="stroke:#181818;stroke-width:0.5;" width="107" x="106" y="42.4883"/><text fill="#000000" font-family="sans-serif" font-size="14" lengthAdjust="spacing" textLength="93" x="113" y="63.0234">Provider/CBO</text><rect fill="#E2E2F0" height="30.4883" rx="2.5" ry="2.5" style="stroke:#181818;stroke-width:0.5;" width="107" x="106" y="523.4805"/><text fill="#000000" font-family="sans-serif" font-size="14" lengthAdjust="spacing" textLength="93" x="113" y="544.0156">Provider/CBO</text><rect fill="#E2E2F0" height="30.4883" rx="2.5" ry="2.5" style="stroke:#181818;stroke-width:0.5;" width="51" x="472" y="42.4883"/><text fill="#000000" font-family="sans-serif" font-size="14" lengthAdjust="spacing" textLength="37" x="479" y="63.0234">Payer</text><rect fill="#E2E2F0" height="30.4883" rx="2.5" ry="2.5" style="stroke:#181818;stroke-width:0.5;" width="51" x="472" y="523.4805"/><text fill="#000000" font-family="sans-serif" font-size="14" lengthAdjust="spacing" textLength="37" x="479" y="544.0156">Payer</text><rect fill="#E2E2F0" height="30.4883" rx="2.5" ry="2.5" style="stroke:#181818;stroke-width:0.5;" width="108" x="533" y="42.4883"/><text fill="#000000" font-family="sans-serif" font-size="14" lengthAdjust="spacing" textLength="94" x="540" y="63.0234">HRSNProvider</text><rect fill="#E2E2F0" height="30.4883" rx="2.5" ry="2.5" style="stroke:#181818;stroke-width:0.5;" width="108" x="533" y="523.4805"/><text fill="#000000" font-family="sans-serif" font-size="14" lengthAdjust="spacing" textLength="94" x="540" y="544.0156">HRSNProvider</text><rect fill="#FFFFFF" height="64.5098" style="stroke:#181818;stroke-width:1.0;" width="10" x="492.5" y="273.418"/><path d="M25,88.9766 L25,113.9766 L626,113.9766 L626,98.9766 L616,88.9766 L25,88.9766 " fill="#FEFFDD" style="stroke:#181818;stroke-width:0.5;"/><path d="M616,88.9766 L616,98.9766 L626,98.9766 L616,88.9766 " fill="#FEFFDD" style="stroke:#181818;stroke-width:0.5;"/><text fill="#000000" font-family="sans-serif" font-size="13" lengthAdjust="spacing" textLength="523" x="59.5" y="106.5449">Patient completes a social risk assessment instrument during or prior to encounter</text><path d="M5,149.2871 L5,174.2871 L221,174.2871 L221,159.2871 L211,149.2871 L5,149.2871 " fill="#FEFFDD" style="stroke:#181818;stroke-width:0.5;"/><path d="M211,149.2871 L211,159.2871 L221,159.2871 L211,149.2871 " fill="#FEFFDD" style="stroke:#181818;stroke-width:0.5;"/><text fill="#000000" font-family="sans-serif" font-size="13" lengthAdjust="spacing" textLength="195" x="11" y="166.8555">Patient arrives for appointment</text><line style="stroke:#181818;stroke-width:1.0;" x1="159.5" x2="201.5" y1="200.9082" y2="200.9082"/><line style="stroke:#181818;stroke-width:1.0;" x1="201.5" x2="201.5" y1="200.9082" y2="213.9082"/><line style="stroke:#181818;stroke-width:1.0;" x1="160.5" x2="201.5" y1="213.9082" y2="213.9082"/><polygon fill="#181818" points="170.5,209.9082,160.5,213.9082,170.5,217.9082,166.5,213.9082" style="stroke:#181818;stroke-width:1.0;"/><text fill="#000000" font-family="sans-serif" font-size="13" lengthAdjust="spacing" textLength="324" x="166.5" y="196.166">Confirm social risk and mutually define social need</text><path d="M96,228.9082 L590,228.9082 L590,236.2188 L580,246.2188 L96,246.2188 L96,228.9082 " fill="#EEEEEE" style="stroke:#000000;stroke-width:1.5;"/><rect fill="none" height="117.0195" style="stroke:#000000;stroke-width:1.5;" width="499" x="96" y="228.9082"/><text fill="#000000" font-family="sans-serif" font-size="13" font-weight="bold" lengthAdjust="spacing" textLength="449" x="111" y="242.4766">Social Care Supplemental Benefits Determination (CRD/CDS Hooks)</text><polygon fill="#181818" points="480.5,269.418,490.5,273.418,480.5,277.418,484.5,273.418" style="stroke:#181818;stroke-width:1.0;"/><line style="stroke:#181818;stroke-width:1.0;" x1="159.5" x2="486.5" y1="273.418" y2="273.418"/><text fill="#FF0000" font-family="sans-serif" font-size="18" lengthAdjust="spacing" textLength="11" x="166.5" y="267.6211">1</text><text fill="#000000" font-family="sans-serif" font-size="13" lengthAdjust="spacing" textLength="235" x="181.5" y="265.7314">Request supplemental benefits check</text><polygon fill="#181818" points="170.5,298.7285,160.5,302.7285,170.5,306.7285,166.5,302.7285" style="stroke:#181818;stroke-width:1.0;"/><polygon fill="#181818" points="480.5,298.7285,490.5,302.7285,480.5,306.7285,484.5,302.7285" style="stroke:#181818;stroke-width:1.0;"/><line style="stroke:#181818;stroke-width:1.0;stroke-dasharray:2.0,2.0;" x1="164.5" x2="486.5" y1="302.7285" y2="302.7285"/><text fill="#000000" font-family="sans-serif" font-size="13" lengthAdjust="spacing" textLength="195" x="176.5" y="297.9863">Request additional information</text><polygon fill="#181818" points="170.5,333.9277,160.5,337.9277,170.5,341.9277,166.5,337.9277" style="stroke:#181818;stroke-width:1.0;"/><line style="stroke:#181818;stroke-width:1.0;" x1="164.5" x2="496.5" y1="337.9277" y2="337.9277"/><text fill="#FF0000" font-family="sans-serif" font-size="18" lengthAdjust="spacing" textLength="11" x="176.5" y="332.1309">2</text><text fill="#000000" font-family="sans-serif" font-size="13" lengthAdjust="spacing" textLength="252" x="191.5" y="330.2412">Send supplemental benefits information</text><line style="stroke:#181818;stroke-width:1.0;" x1="159.5" x2="201.5" y1="374.2383" y2="374.2383"/><line style="stroke:#181818;stroke-width:1.0;" x1="201.5" x2="201.5" y1="374.2383" y2="387.2383"/><line style="stroke:#181818;stroke-width:1.0;" x1="160.5" x2="201.5" y1="387.2383" y2="387.2383"/><polygon fill="#181818" points="170.5,383.2383,160.5,387.2383,170.5,391.2383,166.5,387.2383" style="stroke:#181818;stroke-width:1.0;"/><text fill="#000000" font-family="sans-serif" font-size="13" lengthAdjust="spacing" textLength="241" x="166.5" y="369.4961">View information on available benefits</text><path d="M25,402.2383 L201,402.2383 L201,409.5488 L191,419.5488 L25,419.5488 L25,402.2383 " fill="#EEEEEE" style="stroke:#000000;stroke-width:1.5;"/><rect fill="none" height="105.2422" style="stroke:#000000;stroke-width:1.5;" width="626" x="25" y="402.2383"/><text fill="#000000" font-family="sans-serif" font-size="13" font-weight="bold" lengthAdjust="spacing" textLength="131" x="40" y="415.8066">Social Care Referral</text><polygon fill="#181818" points="575,436.8594,585,440.8594,575,444.8594,579,440.8594" style="stroke:#181818;stroke-width:1.0;"/><line style="stroke:#181818;stroke-width:1.0;" x1="159.5" x2="581" y1="440.8594" y2="440.8594"/><text fill="#000000" font-family="sans-serif" font-size="13" lengthAdjust="spacing" textLength="48" x="166.5" y="436.1172">Referral</text><polygon fill="#181818" points="76.5,466.1699,66.5,470.1699,76.5,474.1699,72.5,470.1699" style="stroke:#181818;stroke-width:1.0;"/><line style="stroke:#181818;stroke-width:1.0;" x1="70.5" x2="586" y1="470.1699" y2="470.1699"/><text fill="#000000" font-family="sans-serif" font-size="13" lengthAdjust="spacing" textLength="94" x="82.5" y="465.4277">Provide service</text><polygon fill="#181818" points="170.5,495.4805,160.5,499.4805,170.5,503.4805,166.5,499.4805" style="stroke:#181818;stroke-width:1.0;"/><line style="stroke:#181818;stroke-width:1.0;" x1="164.5" x2="586" y1="499.4805" y2="499.4805"/><text fill="#000000" font-family="sans-serif" font-size="13" lengthAdjust="spacing" textLength="182" x="176.5" y="494.7383">Notify that services provided</text><!--SRC=[ZLF1Rjim3BtxAuXSjW4hYkuq16qFTGuzTPq3R6V6fbiYjkXHieiC-VXHJfJPGOeD20o1UdplyJ4A71g2jPIC3UIeTkwxhg6MNB3A0pcgENZuARgj6tdBiWurSCaTkW3F6DY0izhYMMNWYlGwV_Ys0FIG2cUjkxFAOx5-Ea4p9u40InNlbqa7IcdDMo0F2FxWMTblJSIJzz4piFD1-_5OzShk1KIXKxPl421NIk-22Nn8Kd1rd_YNi2wLoCMkxptvmE8SifAXZmuY-DZuBheWtudpbEtt-yCSCfXEwllyLowneYeFDbLjBh7hX5s84sGpZoVPN5pDsiuJS1MqVUYnQNPGsSuSfNj7L6KlAdtt7tjUMRhQiiCu3NpCYzLrlbh3eyZMVye0i0_Y-dPZdcvWSLlBk9L6z4wf0i-_wUxcw_t2aFDyTz5uGRzYJk2dqfiaNRvIkPrB-21Th9I11xGS3t-QI1uFS7irooNHOrLnj6_ax2pITXmccrD_-OVxKM2-RRACBrkVobmQeAAp4OpgdUN-O7gRye7zS41kS6CFDIbc5nPQK4sgs9nbFtrMoobeUZ5x1CSYUDA1Ixe4FV4zIU1w1-4LGy9xUsxZTHN7_0C0]--></g></svg>